{
	"asset":{
		"generator":"Khronos glTF Blender I/O v4.2.83",
		"version":"2.0"
	},
	"scene":0,
	"scenes":[
		{
			"name":"Scene",
			"nodes":[
				0,
				1,
				2,
				3,
				4,
				5
			]
		}
	],
	"nodes":[
		{
			"mesh":0,
			"name":"DFH-1_Body"
		},
		{
			"mesh":1,
			"name":"Ring",
			"rotation":[
				0.7071068286895752,
				0,
				0,
				0.7071068286895752
			]
		},
		{
			"mesh":2,
			"name":"Antenna_1",
			"rotation":[
				0.45451948046684265,
				0,
				-0.5416752696037292,
				0.7071067690849304
			],
			"translation":[
				1.6990666389465332,
				0,
				0.9641814231872559
			]
		},
		{
			"mesh":3,
			"name":"Antenna_2",
			"rotation":[
				0.3420201539993286,
				0,
				0,
				0.9396926164627075
			],
			"translation":[
				0,
				1.6990666389465332,
				0.9641814231872559
			]
		},
		{
			"mesh":4,
			"name":"Antenna_3",
			"rotation":[
				0.45451948046684265,
				0,
				0.5416752696037292,
				0.7071067690849304
			],
			"translation":[
				-1.6990666389465332,
				0,
				0.9641814231872559
			]
		},
		{
			"mesh":5,
			"name":"Antenna_4",
			"rotation":[
				0.9396926164627075,
				0,
				0,
				0.3420201539993286
			],
			"translation":[
				0,
				-1.6990666389465332,
				0.9641814231872559
			]
		}
	],
	"materials":[
		{
			"doubleSided":true,
			"name":"Gold",
			"pbrMetallicRoughness":{
				"baseColorFactor":[
					0.8999999761581421,
					0.699999988079071,
					0.20000000298023224,
					1
				],
				"metallicFactor":1,
				"roughnessFactor":0.4000000059604645
			}
		},
		{
			"doubleSided":true,
			"name":"Silver",
			"pbrMetallicRoughness":{
				"baseColorFactor":[
					0.8999999761581421,
					0.8999999761581421,
					0.8999999761581421,
					1
				],
				"metallicFactor":1,
				"roughnessFactor":0.30000001192092896
			}
		}
	],
	"meshes":[
		{
			"name":"\u7403\u4f53",
			"primitives":[
				{
					"attributes":{
						"POSITION":0,
						"NORMAL":1,
						"TEXCOORD_0":2
					},
					"indices":3,
					"material":0
				}
			]
		},
		{
			"name":"\u73af\u4f53",
			"primitives":[
				{
					"attributes":{
						"POSITION":4,
						"NORMAL":5,
						"TEXCOORD_0":6
					},
					"indices":7,
					"material":0
				}
			]
		},
		{
			"name":"\u67f1\u4f53",
			"primitives":[
				{
					"attributes":{
						"POSITION":8,
						"NORMAL":9,
						"TEXCOORD_0":10
					},
					"indices":11,
					"material":1
				}
			]
		},
		{
			"name":"\u67f1\u4f53.001",
			"primitives":[
				{
					"attributes":{
						"POSITION":12,
						"NORMAL":13,
						"TEXCOORD_0":14
					},
					"indices":11,
					"material":1
				}
			]
		},
		{
			"name":"\u67f1\u4f53.002",
			"primitives":[
				{
					"attributes":{
						"POSITION":15,
						"NORMAL":16,
						"TEXCOORD_0":17
					},
					"indices":11,
					"material":1
				}
			]
		},
		{
			"name":"\u67f1\u4f53.003",
			"primitives":[
				{
					"attributes":{
						"POSITION":18,
						"NORMAL":19,
						"TEXCOORD_0":20
					},
					"indices":11,
					"material":1
				}
			]
		}
	],
	"accessors":[
		{
			"bufferView":0,
			"componentType":5126,
			"count":264,
			"max":[
				0.5,
				0.5,
				0.5
			],
			"min":[
				-0.5,
				-0.5,
				-0.5
			],
			"type":"VEC3"
		},
		{
			"bufferView":1,
			"componentType":5126,
			"count":264,
			"type":"VEC3"
		},
		{
			"bufferView":2,
			"componentType":5126,
			"count":264,
			"type":"VEC2"
		},
		{
			"bufferView":3,
			"componentType":5123,
			"count":360,
			"type":"SCALAR"
		},
		{
			"bufferView":4,
			"componentType":5126,
			"count":2304,
			"max":[
				0.5399999618530273,
				0.019999999552965164,
				0.5399999618530273
			],
			"min":[
				-0.5399999618530273,
				-0.019999999552965164,
				-0.5399999618530273
			],
			"type":"VEC3"
		},
		{
			"bufferView":5,
			"componentType":5126,
			"count":2304,
			"type":"VEC3"
		},
		{
			"bufferView":6,
			"componentType":5126,
			"count":2304,
			"type":"VEC2"
		},
		{
			"bufferView":7,
			"componentType":5123,
			"count":3456,
			"type":"SCALAR"
		},
		{
			"bufferView":8,
			"componentType":5126,
			"count":192,
			"max":[
				0.004999999888241291,
				1.5,
				0.004999999888241291
			],
			"min":[
				-0.004999999888241291,
				-1.5,
				-0.004999999888241291
			],
			"type":"VEC3"
		},
		{
			"bufferView":9,
			"componentType":5126,
			"count":192,
			"type":"VEC3"
		},
		{
			"bufferView":10,
			"componentType":5126,
			"count":192,
			"type":"VEC2"
		},
		{
			"bufferView":11,
			"componentType":5123,
			"count":372,
			"type":"SCALAR"
		},
		{
			"bufferView":12,
			"componentType":5126,
			"count":192,
			"max":[
				0.004999999888241291,
				1.5,
				0.004999999888241291
			],
			"min":[
				-0.004999999888241291,
				-1.5,
				-0.004999999888241291
			],
			"type":"VEC3"
		},
		{
			"bufferView":13,
			"componentType":5126,
			"count":192,
			"type":"VEC3"
		},
		{
			"bufferView":14,
			"componentType":5126,
			"count":192,
			"type":"VEC2"
		},
		{
			"bufferView":15,
			"componentType":5126,
			"count":192,
			"max":[
				0.004999999888241291,
				1.5,
				0.004999999888241291
			],
			"min":[
				-0.004999999888241291,
				-1.5,
				-0.004999999888241291
			],
			"type":"VEC3"
		},
		{
			"bufferView":16,
			"componentType":5126,
			"count":192,
			"type":"VEC3"
		},
		{
			"bufferView":17,
			"componentType":5126,
			"count":192,
			"type":"VEC2"
		},
		{
			"bufferView":18,
			"componentType":5126,
			"count":192,
			"max":[
				0.004999999888241291,
				1.5,
				0.004999999888241291
			],
			"min":[
				-0.004999999888241291,
				-1.5,
				-0.004999999888241291
			],
			"type":"VEC3"
		},
		{
			"bufferView":19,
			"componentType":5126,
			"count":192,
			"type":"VEC3"
		},
		{
			"bufferView":20,
			"componentType":5126,
			"count":192,
			"type":"VEC2"
		}
	],
	"bufferViews":[
		{
			"buffer":0,
			"byteLength":3168,
			"byteOffset":0,
			"target":34962
		},
		{
			"buffer":0,
			"byteLength":3168,
			"byteOffset":3168,
			"target":34962
		},
		{
			"buffer":0,
			"byteLength":2112,
			"byteOffset":6336,
			"target":34962
		},
		{
			"buffer":0,
			"byteLength":720,
			"byteOffset":8448,
			"target":34963
		},
		{
			"buffer":0,
			"byteLength":27648,
			"byteOffset":9168,
			"target":34962
		},
		{
			"buffer":0,
			"byteLength":27648,
			"byteOffset":36816,
			"target":34962
		},
		{
			"buffer":0,
			"byteLength":18432,
			"byteOffset":64464,
			"target":34962
		},
		{
			"buffer":0,
			"byteLength":6912,
			"byteOffset":82896,
			"target":34963
		},
		{
			"buffer":0,
			"byteLength":2304,
			"byteOffset":89808,
			"target":34962
		},
		{
			"buffer":0,
			"byteLength":2304,
			"byteOffset":92112,
			"target":34962
		},
		{
			"buffer":0,
			"byteLength":1536,
			"byteOffset":94416,
			"target":34962
		},
		{
			"buffer":0,
			"byteLength":744,
			"byteOffset":95952,
			"target":34963
		},
		{
			"buffer":0,
			"byteLength":2304,
			"byteOffset":96696,
			"target":34962
		},
		{
			"buffer":0,
			"byteLength":2304,
			"byteOffset":99000,
			"target":34962
		},
		{
			"buffer":0,
			"byteLength":1536,
			"byteOffset":101304,
			"target":34962
		},
		{
			"buffer":0,
			"byteLength":2304,
			"byteOffset":102840,
			"target":34962
		},
		{
			"buffer":0,
			"byteLength":2304,
			"byteOffset":105144,
			"target":34962
		},
		{
			"buffer":0,
			"byteLength":1536,
			"byteOffset":107448,
			"target":34962
		},
		{
			"buffer":0,
			"byteLength":2304,
			"byteOffset":108984,
			"target":34962
		},
		{
			"buffer":0,
			"byteLength":2304,
			"byteOffset":111288,
			"target":34962
		},
		{
			"buffer":0,
			"byteLength":1536,
			"byteOffset":113592,
			"target":34962
		}
	],
	"buffers":[
		{
			"byteLength":115128,
			"uri":"%E4%B8%9C%E6%96%B9%E7%BA%A2%E4%B8%80%E5%8F%B7%E5%8D%AB%E6%98%9F.bin"
		}
	]
}
